#N canvas 769 178 450 773 10;
#X obj 305 48 tgl 15 0 empty empty empty 17 7 0 10 -262144 -1 -1 1
1;
#X msg 305 74 \; pd dsp \$1;
#X msg 199 108 start;
#X msg 199 133 stop;
#X obj 126 199 readsf~ 2;
#X obj 176 492 dac~ 1 2;
#X msg 126 74 open ./sound/test.wav;
#X obj 85 364 vu 15 120 empty empty -1 -8 0 10 -66577 -1 1 0;
#X obj 36 364 vu 15 120 empty empty -1 -8 0 10 -66577 -1 1 0;
#X obj 45 255 env~;
#X obj 45 291 - 100;
#X obj 94 255 env~;
#X obj 94 291 - 100;
#X obj 186 227 bng 15 250 50 0 empty empty empty 17 7 0 10 -262144
-1 -1;
#X obj 290 355 nbx 5 14 0 20 0 0 empty empty empty 0 -8 0 10 -262144
-1 -1 10 256;
#X obj 231 265 hsl 128 15 0 127 0 0 empty empty empty -2 -8 0 10 -262144
-1 -1 1700 1;
#X obj 228 296 mtof;
#X floatatom 244 319 5 0 0 0 - - -, f 5;
#X floatatom 107 332 5 0 0 0 - - -, f 5;
#X floatatom 52 330 5 0 0 0 - - -, f 5;
#X obj 290 560 vu 15 120 empty empty -1 -8 0 10 -66577 -1 1 0;
#X obj 241 560 vu 15 120 empty empty -1 -8 0 10 -66577 -1 1 0;
#X obj 250 451 env~;
#X obj 250 487 - 100;
#X obj 299 451 env~;
#X obj 299 487 - 100;
#X floatatom 312 528 5 0 0 0 - - -, f 5;
#X floatatom 257 526 5 0 0 0 - - -, f 5;
#X text 351 355 <-- Q;
#X text 285 317 <-- center frequency;
#X obj 175 380 vcf~ 220 1;
#X obj 230 399 vcf~ 220 1;
#X obj 158 455 *~;
#X floatatom 177 426 5 0 0 0 - - -, f 5;
#X obj 201 452 *~;
#X connect 0 0 1 0;
#X connect 2 0 4 0;
#X connect 3 0 4 0;
#X connect 4 0 9 0;
#X connect 4 0 30 0;
#X connect 4 1 11 0;
#X connect 4 1 31 0;
#X connect 4 2 13 0;
#X connect 6 0 4 0;
#X connect 9 0 10 0;
#X connect 10 0 8 1;
#X connect 10 0 19 0;
#X connect 11 0 12 0;
#X connect 12 0 7 1;
#X connect 12 0 18 0;
#X connect 14 0 30 2;
#X connect 14 0 31 2;
#X connect 15 0 16 0;
#X connect 16 0 17 0;
#X connect 16 0 30 1;
#X connect 16 0 31 1;
#X connect 22 0 23 0;
#X connect 23 0 21 1;
#X connect 23 0 27 0;
#X connect 24 0 25 0;
#X connect 25 0 20 1;
#X connect 25 0 26 0;
#X connect 30 0 22 0;
#X connect 30 0 32 0;
#X connect 31 0 24 0;
#X connect 31 0 34 0;
#X connect 32 0 5 0;
#X connect 33 0 32 1;
#X connect 33 0 34 1;
#X connect 34 0 5 1;
