#N canvas 403 153 591 402 10;
#X obj 166 110 metro 1000;
#X obj 166 241 makenote;
#X obj 166 149 trigger b b b;
#X msg 166 190 60;
#X msg 210 191 100;
#X msg 254 191 500;
#X obj 166 38 loadbang;
#X obj 166 79 tgl 15 0 empty empty empty 17 7 0 10 -262144 -1 -1 1
1;
#X obj 98 163 bng 15 250 50 0 empty empty empty 17 7 0 10 -262144 -1
-1;
#X obj 166 297 noteout;
#X msg 212 270 1;
#X connect 0 0 2 0;
#X connect 0 0 8 0;
#X connect 1 0 9 0;
#X connect 1 1 9 1;
#X connect 2 0 3 0;
#X connect 2 1 4 0;
#X connect 2 2 5 0;
#X connect 3 0 1 0;
#X connect 4 0 1 1;
#X connect 5 0 1 2;
#X connect 6 0 7 0;
#X connect 7 0 0 0;
#X connect 10 0 9 2;
