#N canvas 1085 523 450 300 10;
#X msg 122 42 60;
#X obj 122 78 makenote 127 500;
#X obj 122 115 pack f f;
#X obj 122 156 cyclone/midiformat;
#X obj 122 253 seq;
#X msg 271 180 record;
#X msg 276 212 stop record;
#X msg 278 241 write test.mid;
#X obj 19 222 noteout;
#X msg 83 199 1;
#X connect 0 0 1 0;
#X connect 1 0 2 0;
#X connect 1 0 8 0;
#X connect 1 1 2 1;
#X connect 1 1 8 1;
#X connect 2 0 3 0;
#X connect 3 0 4 0;
#X connect 5 0 4 0;
#X connect 6 0 4 0;
#X connect 7 0 4 0;
#X connect 9 0 8 2;
