#N canvas 654 289 450 300 10;
#X obj 135 27 netreceive 13001;
#X obj 18 72 print received;
#X floatatom 244 60 5 0 0 0 - - -, f 5;
#X floatatom 145 125 5 0 0 0 - - -, f 5;
#X obj 145 87 route myVar1;
#X connect 0 0 1 0;
#X connect 0 0 4 0;
#X connect 0 1 2 0;
#X connect 4 0 3 0;
