#N canvas 1309 169 450 768 10;
#X obj 68 44 noise~;
#X obj 69 395 vcf~ 220 1;
#X obj 70 496 dac~;
#X obj 104 467 tabwrite~ vcf;
#X obj 113 424 tgl 15 0 empty empty empty 17 7 0 10 -262144 -1 -1 1
1;
#X obj 113 444 metro 100;
#X obj 106 91 hsl 128 15 0 127 0 0 empty empty empty -2 -8 0 10 -262144
-1 -1 3800 1;
#X obj 103 111 mtof~;
#X obj 102 293 +~, f 4;
#X obj 128 151 nbx 5 14 -1e+37 1e+37 0 0 empty empty empty 0 -8 0 10
-262144 -1 -1 0.25 256;
#X obj 128 186 osc~;
#X obj 128 260 *~;
#X obj 146 233 nbx 5 14 -1e+37 1e+37 0 0 empty empty empty 0 -8 0 10
-262144 -1 -1 10000 256;
#X obj 143 356 nbx 5 14 -1e+37 1e+37 0 0 empty empty empty 0 -8 0 10
-262144 -1 -1 6 256;
#X connect 0 0 1 0;
#X connect 1 0 2 0;
#X connect 1 0 3 0;
#X connect 1 0 2 1;
#X connect 4 0 5 0;
#X connect 5 0 3 0;
#X connect 6 0 7 0;
#X connect 7 0 8 0;
#X connect 8 0 1 1;
#X connect 9 0 10 0;
#X connect 10 0 11 0;
#X connect 11 0 8 1;
#X connect 12 0 11 1;
#X connect 13 0 1 2;
